<svg xmlns="http://www.w3.org/2000/svg" enable-background="new 0 0 24 24" height="24px" viewBox="0 0 24 24" width="24px" fill="#000000"><g><rect fill="#ffff" height="24" width="24" y="0"/></g><g><path d="M16.6,5.82C16.6,5.82,17.11,6.32,16.6,5.82C15.94,5.06,15.54,4.08,15.54,3h-3.09l0,12.4c-0.05,1.39-1.19,2.5-2.59,2.5 c-1.42,0-2.6-1.16-2.6-2.6c0-1.72,1.66-3.01,3.37-2.48V9.66C7.18,9.2,4.16,11.88,4.16,15.3c0,3.33,2.76,5.7,5.69,5.7 c3.14,0,5.69-2.55,5.69-5.7V9.01c1.21,0.87,2.7,1.38,4.3,1.38V7.3C19.84,7.3,17.96,7.39,16.6,5.82z"/></g></svg>